<svg width="1440" height="423" viewBox="0 0 1440 423" fill="none" xmlns="http://www.w3.org/2000/svg">
<path d="M0.5 421.732L0.500034 27.6173C27.1646 38.0153 51.3769 30.2733 75.2618 23.4972C99.3827 16.6541 123.192 10.7834 149.239 25.0158C169.723 40.0319 189.346 32.7303 209.121 24.9103C228.972 17.0601 248.987 8.69001 270.744 20.7833C289.738 33.9248 310.747 26.0663 331.053 18.3361C341.255 14.4521 351.291 10.5908 360.926 9.29019C370.536 7.99286 379.708 9.25071 388.201 15.5822L388.244 15.6134L388.292 15.6359C415.995 28.3161 444.438 19.3094 471.711 10.7638C499.077 2.18894 525.219 -5.89952 548.744 8.0197C581.676 27.5047 609.851 21.5528 635.739 15.3957C661.655 9.2319 685.162 2.91276 709.196 21.1252L709.215 21.1389L709.234 21.1506L710.182 21.7346C750.243 46.2018 786.743 40.1044 821.447 30.2668C838.955 25.3038 855.95 19.4082 872.794 15.9523C889.608 12.5028 906.196 11.5044 922.828 16.3107C967.72 36.1048 1005.6 29.2286 1039.92 21.6067C1074.28 13.9756 1104.95 5.65149 1135.75 22.1721C1166.18 42.8157 1200.62 38.1983 1233.68 30.0461C1250.26 25.9592 1266.44 20.9995 1281.72 17.8176C1296.98 14.641 1311.23 13.2674 1323.86 16.3205C1358.93 28.3153 1388 28.5846 1408.32 25.8489C1418.47 24.4808 1426.44 22.3618 1431.87 20.5823C1434.59 19.6926 1436.67 18.8875 1438.08 18.304C1438.67 18.0559 1439.15 17.8473 1439.5 17.6897L1439.5 421.732L0.5 421.732Z" fill="#222222" stroke="black"/>
</svg>
